<?xml version="1.0" ?><svg id="Layer_1" style="enable-background:new 0 0 128 128;" version="1.1" viewBox="0 0 128 128" xml:space="preserve" xmlns="http://www.w3.org/2000/svg" xmlns:xlink="http://www.w3.org/1999/xlink"><style type="text/css">
	.st0{fill:#FFFFFF;}
	.st1{fill:#E4E4E7;}
	.st2{fill:none;stroke:#444B54;stroke-width:6;stroke-linecap:round;stroke-linejoin:round;stroke-miterlimit:10;}
	.st3{fill:#AFAFBC;}
	.st4{fill:#EAD063;}
	.st5{fill:#242426;}
	.st6{fill:#F9DED4;}
	.st7{fill:#D8AC9E;}
	.st8{fill:#FFD0FF;}
	.st9{fill:#6575C1;}
	.st10{fill:#786F74;}
	.st11{fill:#9B9BA5;}
	.st12{fill:#FFD2EA;}
	.st13{fill:#B78BA4;}
	.st14{fill:#444B54;}
	.st15{fill:#5D5D8C;}
	.st16{fill:none;stroke:#FFFFFF;stroke-width:6;stroke-linecap:round;stroke-linejoin:round;stroke-miterlimit:10;}
</style><g><g><path class="st0" d="M107,111c-1.8,0-3.4,0.3-5,0.9c-0.1-5.5-4.5-9.9-10-9.9c-0.6,0-1.2,0.1-1.8,0.2C92,99.2,93,95.7,93,92    c0-11-9-20-20-20c-1.8,0-3.4,0.2-5.1,0.7C66.7,72.2,65.4,72,64,72c-6.3,0-11.5,4.9-12,11.1c-0.7-0.1-1.4-0.1-2-0.1    c-8.8,0-16,6.7-16.9,15.2c-1-0.1-2-0.2-3.1-0.2c-12.2,0-22,9.8-22,22c0,1.4,0.1,2.7,0.4,4h113.5C120.9,116.7,114.6,111,107,111z"/></g></g><g><g><path class="st14" d="M8.4,127c-1.4,0-2.7-1-2.9-2.5C5.1,123,5,121.5,5,120c0-14,11.5-25.3,25.6-25c1.9-7.5,8.1-13.3,15.8-14.7    c1.6-0.3,3.2,0.8,3.5,2.4c0.3,1.6-0.8,3.2-2.4,3.5c-6.1,1.1-10.8,6.1-11.4,12.3c-0.1,0.8-0.5,1.6-1.1,2.1    c-0.6,0.5-1.5,0.7-2.3,0.6c-0.9-0.1-1.8-0.2-2.7-0.2c-10.5,0-19,8.5-19,19c0,1.1,0.1,2.3,0.3,3.5c0.3,1.6-0.8,3.2-2.4,3.5    C8.7,127,8.5,127,8.4,127z"/></g><g><path class="st14" d="M121.8,127c-1.5,0-2.8-1.1-3-2.6c-0.8-5.9-5.9-10.4-11.9-10.4c-1.3,0-2.7,0.2-4,0.7    c-0.9,0.3-1.9,0.2-2.7-0.4s-1.3-1.5-1.3-2.4c0-3.8-3.2-6.9-7-6.9c-0.4,0-0.8,0-1.3,0.1c-1.2,0.2-2.3-0.3-3-1.2    c-0.7-1-0.7-2.2-0.1-3.2C89.2,98,90,95,90,92c0-6.1-3.3-11.7-8.5-14.7c-1.4-0.8-1.9-2.7-1.1-4.1c0.8-1.4,2.7-1.9,4.1-1.1    C91.6,76.2,96,83.8,96,92c0,2.5-0.4,5-1.2,7.3c4.6,1,8.3,4.5,9.6,8.9c0.9-0.1,1.7-0.2,2.6-0.2c9,0,16.6,6.7,17.8,15.6    c0.2,1.6-0.9,3.2-2.6,3.4C122.1,127,122,127,121.8,127z"/></g></g><g><path class="st14" d="M71,103c-1.7,0-3-1.3-3-3V75c0-1.7,1.3-3,3-3s3,1.3,3,3v25C74,101.7,72.7,103,71,103z"/></g><g><path class="st14" d="M59,93c-1.7,0-3-1.3-3-3V75c0-1.7,1.3-3,3-3s3,1.3,3,3v15C62,91.7,60.7,93,59,93z"/></g><g><path class="st14" d="M59,113c-1.7,0-3-1.3-3-3v-5c0-1.7,1.3-3,3-3s3,1.3,3,3v5C62,111.7,60.7,113,59,113z"/></g><g><polygon class="st1" points="59,3.8 59,57.8 71,57.9 71,3.8  "/></g><g><path class="st14" d="M71,60.9c-1.7,0-3-1.3-3-3V6.8H62v50.9c0,1.7-1.3,3-3,3s-3-1.3-3-3V3.8c0-1.7,1.3-3,3-3H71c1.7,0,3,1.3,3,3   v54.1C74,59.5,72.7,60.9,71,60.9z"/></g></svg>